<svg width="60" height="60" viewBox="0 0 60 60" fill="none" xmlns="http://www.w3.org/2000/svg">
<g clip-path="url(#clip0_478_234)">
<path d="M17.1168 48.2109C17.7965 48.7137 18.5115 49.1459 19.242 49.5537C21.1084 50.5945 23.0941 51.323 25.1747 51.7905C26.1336 52.0059 27.1049 52.1574 28.0882 52.2285C28.9272 52.2892 29.7657 52.3551 30.6062 52.313C31.4701 52.27 32.332 52.203 33.1907 52.0811C34.6554 51.8725 36.0828 51.5212 37.4718 51.0205C37.9175 50.8597 38.3487 50.8379 38.8012 50.9214C38.8681 50.9339 38.9122 50.9629 38.9511 51.0081C39.443 51.5705 39.9681 52.1024 40.4802 52.6461C41.3037 53.5215 42.1095 54.4134 42.9562 55.2659C43.0336 55.3437 43.0263 55.4324 43.0559 55.5175C43.2079 55.9612 43.2318 56.4105 43.1513 56.8723C43.1337 56.9745 43.073 57.002 43.0128 57.0311C41.4676 57.773 39.87 58.3801 38.2221 58.8518C37.1891 59.1475 36.143 59.3935 35.0835 59.5668C34.1713 59.7157 33.254 59.8257 32.3309 59.9014C31.2283 59.9917 30.1263 60.0234 29.0237 59.9829C27.8194 59.9393 26.6208 59.8288 25.4269 59.643C23.6778 59.3712 21.9666 58.9592 20.2933 58.3879C17.2532 57.3497 14.4524 55.8615 11.8944 53.9153C10.8945 53.1546 9.9419 52.3395 9.04374 51.4621C7.09125 49.5542 5.43037 47.4196 4.05278 45.0609C2.92892 43.1364 2.03958 41.1102 1.37077 38.9881C0.955673 37.6707 0.651099 36.3258 0.416053 34.9617C0.0569988 32.8779 -0.0618214 30.7806 0.0274234 28.6761C0.133272 26.1757 0.551477 23.7215 1.28308 21.3217C1.82166 19.5534 2.50552 17.8469 3.35646 16.2078C4.28575 14.4182 5.38419 12.7387 6.658 11.1733C7.50531 10.1314 8.39983 9.13308 9.38048 8.21624C10.6538 7.02648 12.0122 5.94465 13.466 4.97852C15.8372 3.40221 18.3828 2.20519 21.0959 1.35477C22.5467 0.899726 24.026 0.564539 25.527 0.336238C27.4199 0.0487872 29.3277 -0.0565424 31.2398 0.0285514C33.8299 0.144258 36.3682 0.573879 38.8499 1.34284C40.4257 1.83109 41.9491 2.44231 43.4227 3.17599C45.4286 4.1748 47.2945 5.39569 49.0254 6.81842C49.8701 7.51266 50.6816 8.24634 51.4423 9.0319C53.8462 11.5131 55.7987 14.3093 57.2411 17.451C58.2072 19.555 58.9316 21.7394 59.3788 24.0157C59.6201 25.2428 59.7955 26.4751 59.8951 27.7214C59.9818 28.8033 60.0264 29.8856 59.9786 30.968C59.9252 32.1738 59.8188 33.3755 59.6357 34.572C59.2164 37.3111 58.4335 39.9376 57.2821 42.4562C57.0372 42.9921 56.6086 43.2573 56.0332 43.3019C55.8563 43.3154 55.7079 43.25 55.5787 43.1182C55.1433 42.6741 54.6805 42.2548 54.2659 41.7925C53.7237 41.1886 53.1141 40.6521 52.5755 40.0481C52.191 39.6164 51.7422 39.2459 51.3811 38.7992C51.0433 38.382 50.9151 37.8507 51.0744 37.3443C51.4329 36.2049 51.7401 35.0566 51.9643 33.8824C52.247 32.3974 52.3145 30.8969 52.2989 29.3948C52.2901 28.5495 52.2035 27.7033 52.0794 26.8617C51.8709 25.4498 51.5466 24.0707 51.0822 22.7222C50.4186 20.7961 49.5007 19.0009 48.3519 17.3197C48.231 17.1428 48.1755 17.191 48.0593 17.3088C47.4226 17.9548 46.7798 18.5951 46.1374 19.2354C45.9267 19.4455 45.4359 19.4025 45.2735 19.1586C44.8563 18.5334 44.3764 17.9605 43.8425 17.4318C43.2074 16.8029 42.5936 16.1518 41.8952 15.5909C41.5844 15.3413 41.2803 15.0803 40.9467 14.865C40.6992 14.7052 40.6094 14.4826 40.5285 14.2283C40.4885 14.1022 40.5866 14.0779 40.6374 14.0265C41.3125 13.3452 41.9839 12.6603 42.6745 11.9951C42.8639 11.813 42.8177 11.7305 42.6345 11.6091C41.3794 10.7779 40.0786 10.0312 38.686 9.45062C37.5284 8.96808 36.3423 8.57063 35.1203 8.28785C34.2554 8.08756 33.3832 7.92827 32.498 7.83747C31.5915 7.74459 30.6846 7.67143 29.7729 7.68959C28.6459 7.71242 27.5273 7.81049 26.4127 7.9869C25.1893 8.18044 23.9959 8.4819 22.8243 8.87624C20.8531 9.53935 19.0174 10.4712 17.3051 11.6516C17.136 11.7684 17.1749 11.8203 17.289 11.9324C17.8369 12.472 18.3568 13.0422 18.9302 13.5528C19.2815 13.8651 19.2861 14.1873 19.1746 14.5817C19.1004 14.8447 18.8482 14.9065 18.6811 15.0611C18.4139 15.3086 18.114 15.5208 17.8385 15.7595C17.1884 16.3235 16.5932 16.9446 16.0194 17.5844C15.708 17.9315 15.404 18.2869 15.1264 18.6646C14.9069 18.9635 14.5536 19.0859 14.2163 19.1882C14.0036 19.2525 13.7981 19.169 13.6232 18.9868C13.0732 18.4135 12.5015 17.8604 11.9437 17.2943C11.8238 17.1729 11.7667 17.1366 11.6448 17.3135C10.399 19.1176 9.43497 21.0587 8.76459 23.1466C8.35365 24.4256 8.06464 25.73 7.88148 27.0619C7.69936 28.3861 7.62828 29.7165 7.69781 31.0468C7.79431 32.9023 8.1046 34.7251 8.652 36.5079C9.06398 37.8486 9.5927 39.1385 10.2371 40.3807C10.6579 41.1922 11.1431 41.9663 11.6604 42.7213C11.7621 42.8697 11.8 42.809 11.8793 42.7296C12.5321 42.0753 13.1864 41.4221 13.8406 40.7683C14.0788 40.5306 14.6381 40.5555 14.8192 40.8326C15.5124 41.8932 16.3955 42.7861 17.2994 43.6594C17.6543 44.0024 18.0507 44.3012 18.4176 44.6317C18.7133 44.8979 18.9961 45.1807 19.2306 45.504C19.3671 45.6918 19.309 46.0119 19.1196 46.2024C18.4554 46.8696 17.7902 47.5358 17.1157 48.2119L17.1168 48.2109Z" fill="#BB7331"/>
<g filter="url(#filter0_d_478_234)">
<path d="M14.9422 29.816C14.9603 27.421 15.5726 25.0067 16.8044 22.7548C17.4504 21.5739 18.2536 20.5076 19.1891 19.5363C20.5023 18.1727 22.02 17.1013 23.7354 16.3131C24.9744 15.7439 26.2695 15.3496 27.6238 15.1472C28.5868 15.0035 29.5519 14.9101 30.5237 14.9552C32.4803 15.0471 34.3607 15.4642 36.156 16.2695C37.4573 16.8538 38.6434 17.6118 39.733 18.5219C41.0349 19.6095 42.097 20.9051 42.9635 22.362C43.914 23.9601 44.5289 25.6828 44.8402 27.5107C44.9424 28.109 45.0088 28.7145 45.0192 29.3262C45.0265 29.7626 45.0358 30.1964 45.0213 30.6343C44.9684 32.2412 44.6399 33.7864 44.0863 35.2901C43.8969 35.8043 43.6769 36.3045 43.4175 36.787C43.3573 36.8986 43.3397 37.0143 43.3537 37.1352C43.417 37.6763 43.5 38.1791 43.9415 38.6035C45.275 39.8836 46.5545 41.2202 47.8782 42.5101C48.4266 43.0445 49.0046 43.5525 49.5219 44.1165C50.2395 44.8989 51.0266 45.6124 51.7448 46.3922C52.1453 46.827 52.5755 47.2318 52.9729 47.6681C53.2505 47.9732 53.2168 48.3572 53.1862 48.7391C53.1488 49.2034 52.7975 49.465 52.5391 49.7825C52.3005 50.0757 52.0306 50.3444 51.7686 50.6189C50.9317 51.4953 50.0725 52.3519 49.1172 53.0986C48.6155 53.4908 48.1143 53.5386 47.5793 53.0021C45.3222 50.7382 43.0605 48.4796 40.8003 46.2189C40.0978 45.5164 39.3875 44.8216 38.6963 44.1077C38.3549 43.7548 37.9149 43.6796 37.4749 43.5551C36.7309 43.3449 36.1487 43.7605 35.523 44.0039C34.4909 44.405 33.4324 44.6945 32.3371 44.8631C31.4608 44.998 30.5802 45.0816 29.6956 45.0546C27.8157 44.997 25.995 44.6426 24.2516 43.9178C22.8232 43.3237 21.5115 42.536 20.3301 41.5414C19.0511 40.4642 17.9708 39.2122 17.1069 37.7749C16.2492 36.348 15.6374 34.8262 15.2914 33.1985C15.1383 32.4789 15.0267 31.754 14.9863 31.0167C14.9676 30.6732 14.9448 30.3302 14.9417 29.8155L14.9422 29.816ZM37.3457 30.0111C37.3929 25.9235 34.0385 22.6422 30.0567 22.6318C25.842 22.6204 22.6899 25.9412 22.6281 29.8607C22.5617 34.1133 25.9193 37.3759 30.0116 37.3785C34.0452 37.3811 37.3852 34.0796 37.3457 30.0111Z" fill="#FFE785"/>
</g>
</g>
<defs>
<filter id="filter0_d_478_234" x="10.9417" y="14.9438" width="46.2645" height="46.4551" filterUnits="userSpaceOnUse" color-interpolation-filters="sRGB">
<feFlood flood-opacity="0" result="BackgroundImageFix"/>
<feColorMatrix in="SourceAlpha" type="matrix" values="0 0 0 0 0 0 0 0 0 0 0 0 0 0 0 0 0 0 127 0" result="hardAlpha"/>
<feOffset dy="4"/>
<feGaussianBlur stdDeviation="2"/>
<feComposite in2="hardAlpha" operator="out"/>
<feColorMatrix type="matrix" values="0 0 0 0 0 0 0 0 0 0 0 0 0 0 0 0 0 0 0.25 0"/>
<feBlend mode="normal" in2="BackgroundImageFix" result="effect1_dropShadow_478_234"/>
<feBlend mode="normal" in="SourceGraphic" in2="effect1_dropShadow_478_234" result="shape"/>
</filter>
<clipPath id="clip0_478_234">
<rect width="60" height="60" fill="white"/>
</clipPath>
</defs>
</svg>
