<svg width="50" height="50" viewBox="0 0 50 50" fill="none" xmlns="http://www.w3.org/2000/svg">
<path d="M31.2444 3.13301C31.2444 0.403459 27.995 -1.01603 25.9954 0.841188L13.8975 12.0752C13.6089 12.344 13.2295 12.4936 12.8352 12.4942H4.68666C3.44368 12.4942 2.25161 12.9883 1.37269 13.8678C0.493772 14.7473 0 15.9403 0 17.1841V32.8173C0 34.0611 0.493772 35.254 1.37269 36.1336C2.25161 37.0131 3.44368 37.5072 4.68666 37.5072H12.8352C13.229 37.5069 13.6085 37.6554 13.8975 37.9231L25.9954 49.1602C27.995 51.0143 31.2444 49.5979 31.2444 46.8684V3.13301ZM16.0221 14.367L28.12 3.13301V46.8684L16.0221 35.6312C15.1554 34.8272 14.0171 34.3804 12.8352 34.3806H4.68666C4.27234 34.3806 3.87498 34.2159 3.58201 33.9227C3.28903 33.6295 3.12444 33.2319 3.12444 32.8173V17.1841C3.12444 16.7695 3.28903 16.3719 3.58201 16.0787C3.87498 15.7855 4.27234 15.6208 4.68666 15.6208H12.8352C14.0171 15.6209 15.1554 15.1711 16.0221 14.367ZM41.4301 8.20441C41.5832 8.06768 41.7616 7.96245 41.9553 7.89473C42.149 7.82702 42.3541 7.79814 42.5589 7.80975C42.7638 7.82137 42.9643 7.87324 43.1491 7.96242C43.3339 8.05159 43.4993 8.17632 43.636 8.32948C47.7343 12.9153 50 18.8517 50 25.0038C50 31.156 47.7343 37.0924 43.636 41.6782C43.3584 41.9826 42.972 42.1651 42.5607 42.1859C42.1494 42.2068 41.7465 42.0642 41.4397 41.7893C41.1329 41.5145 40.947 41.1295 40.9224 40.7181C40.8977 40.3067 41.0364 39.9023 41.3083 39.5927C44.8945 35.5801 46.8771 30.3856 46.8771 25.0023C46.8771 19.6189 44.8945 14.4244 41.3083 10.4118C41.0319 10.1029 40.8895 9.69682 40.9124 9.28286C40.9352 8.8689 41.1215 8.48097 41.4301 8.20441ZM37.7558 34.1742C37.397 33.9669 37.1352 33.6255 37.0279 33.225C36.9207 32.8245 36.9768 32.3978 37.184 32.0387C38.418 29.8999 39.0677 27.4736 39.0677 25.0038C39.0677 22.534 38.418 20.1078 37.184 17.9689C37.071 17.791 36.9951 17.592 36.9609 17.3839C36.9267 17.1759 36.9349 16.9631 36.985 16.7583C37.0351 16.5535 37.1261 16.361 37.2526 16.1923C37.379 16.0236 37.5382 15.8823 37.7206 15.7767C37.903 15.6712 38.1048 15.6037 38.314 15.5783C38.5232 15.5529 38.7353 15.5701 38.9376 15.6288C39.14 15.6875 39.3284 15.7866 39.4915 15.9201C39.6546 16.0536 39.789 16.2188 39.8866 16.4056C41.3954 19.0195 42.1899 21.9848 42.1905 25.0034C42.191 28.022 41.3975 30.9876 39.8898 33.6021C39.6826 33.9611 39.3414 34.2231 38.9412 34.3304C38.541 34.4377 38.1146 34.3815 37.7558 34.1742Z" fill="black"/>
</svg>
